<?xml version="1.0" encoding="utf-8"?>
<!-- Generator: Adobe Illustrator 24.0.0, SVG Export Plug-In . SVG Version: 6.00 Build 0)  -->
<svg version="1.1" id="Layer_1" xmlns="http://www.w3.org/2000/svg" xmlns:xlink="http://www.w3.org/1999/xlink" x="0px" y="0px"
	 viewBox="0 0 331.12 319.17" style="enable-background:new 0 0 331.12 319.17;" xml:space="preserve">
<style type="text/css">
	.st0{fill:#FF6E4D;}
</style>
<g id="artwork_2">
</g>
<g id="artwork">
</g>
<g id="dieline">
</g>
<g id="blister_placement">
	<g>
		<path class="st0" d="M330.89,290.69c-1.51-11.05-10.36-19.91-21.41-21.4c-5.68-0.77-11.11,0.4-15.68,2.97
			c-1.45,0.82-3.25,0.69-4.59-0.3l-31.99-23.55c5.35-6.28,10-13.16,13.83-20.54l12.58,2.1c1.69,0.26,3.11,1.34,3.91,2.86
			c2.14,4.09,6.17,7.13,11.14,7.76c7.5,0.95,14.67-4.16,16.19-11.57c1.7-8.25-3.84-16.15-12.06-17.46
			c-4.64-0.73-9.1,0.79-12.29,3.76c-1.16,1.09-2.76,1.58-4.33,1.34l-9.55-1.44c4.32-11.75,6.68-24.46,6.68-37.71
			c0-60.41-48.97-109.38-109.38-109.38c-7.89,0-15.58,0.84-22.99,2.43l-6.82-29.61c-0.53-2.31,0.07-4.74,1.63-6.52
			c1.88-2.15,4.31-5.42,5.43-9.05c1.88-6.09-0.2-13.17-3.77-17.69c-6.4-8.1-18.17-10.1-26.89-4.58c-9.96,6.31-12.5,19.58-5.76,29.08
			c2.58,3.63,6.12,6.16,10.04,7.49c2.36,0.8,4.12,2.79,4.72,5.21l7.27,29.72c-11.61,4.19-22.3,10.29-31.7,17.92l-3.85-3.76
			c-1.62-1.82-2.28-4.27-1.89-6.67c0.75-4.59-0.54-9.46-3.98-13.16c-5.49-5.89-14.85-6.58-21.14-1.56
			c-8.89,7.09-9.17,14.35-2.01,22.51c3.14,3.58,7.56,5.38,11.97,5.31c2.24-0.03,4.37,0.99,5.86,2.67l4.48,4.42
			c-14.09,14.87-24.04,33.69-28.02,54.63l-20.27-0.16c-3.47-0.09-6.68-1.87-8.63-4.75c-0.58-0.85-1.17-1.66-1.69-2.25
			c-7.72-8.8-21.3-9.42-29.79-1.14c-7.43,7.24-8.22,19.23-1.79,27.38c7.34,9.31,20.89,10.47,29.69,2.75
			c1.11-0.97,2.09-2.04,2.93-3.18c2.06-2.79,5.27-4.49,8.74-4.4l19.05,0.15c-0.11,2.05-0.18,4.11-0.18,6.19
			c0,60.41,48.97,109.38,109.38,109.38c26.57,0,50.93-9.48,69.88-25.24h4.01c0.05,0,0.1-0.01,0.16-0.01l-0.29,0.67
			c0.34-0.3,0.72-0.53,1.11-0.71c0.94-0.03,1.87-0.12,2.78-0.25c0.52,0.13,1.03,0.35,1.49,0.69l27.43,20.29
			c1.43,1.06,2.06,2.89,1.55,4.6c-0.73,2.45-1.1,5.07-1.04,7.8c0.28,12.35,9.79,22.8,22.06,24.26c7.94,0.94,15.35-1.89,20.57-7.02
			c2.93-2.45,5.17-5.78,6.23-9.75c0.07-0.26,0.11-0.52,0.17-0.78C331.04,298.12,331.41,294.5,330.89,290.69z M231.91,236.3h-98.76
			c-14.79,0-26.79-11.99-26.79-26.79v-24.14c0-14.79,11.99-26.79,26.79-26.79h56.91v-15.03c0-4.08-3.31-7.39-7.39-7.39h-44.61
			l-0.12-25.41h67.61c14.56,0,26.35,11.8,26.35,26.35v99.2H231.91z"/>
		<rect x="139.86" y="188.87" class="st0" width="49.01" height="16.74"/>
	</g>
</g>
</svg>
