<?xml version="1.0" encoding="utf-8"?>
<!-- Generator: Adobe Illustrator 23.0.2, SVG Export Plug-In . SVG Version: 6.00 Build 0)  -->
<svg version="1.1" id="Layer_1" xmlns="http://www.w3.org/2000/svg" xmlns:xlink="http://www.w3.org/1999/xlink" x="0px" y="0px"
	 viewBox="0 0 367.6 78.9" style="enable-background:new 0 0 367.6 78.9;" xml:space="preserve">
<style type="text/css">
	.st0{fill:#FF6E4D;}
	.st1{fill:#FFFFFF;}
</style>
<g>
	<g>
		<g>
			<path class="st0" d="M133.7,71.5c-0.4-2.7-2.6-4.9-5.3-5.3c-1.4-0.2-2.8,0.1-3.9,0.7c-0.4,0.2-0.8,0.2-1.1-0.1l-5.1-3.8l0.1-5.9
				l2.3,0.3c0.4,0.1,0.8,0.3,1,0.7c0.5,1,1.5,1.8,2.8,1.9c1.9,0.2,3.6-1,4-2.9c0.4-2-0.9-4-3-4.3c-1.2-0.2-2.3,0.2-3.1,0.9
				c-0.3,0.3-0.7,0.4-1.1,0.3l-2.8-0.4c-0.1,0-0.2,0-0.2,0V26.6c0-2.6-1.8-4.7-3.9-4.7H35.3v0l-2.6-11.2c-0.1-0.6,0-1.2,0.4-1.6
				c0.5-0.5,1.1-1.3,1.3-2.2c0.5-1.5,0-3.3-0.9-4.4c-1.6-2-4.5-2.5-6.7-1.1c-2.5,1.6-3.1,4.9-1.4,7.2c0.6,0.9,1.5,1.5,2.5,1.9
				c0.6,0.2,1,0.7,1.2,1.3l2.5,10.3H31c-2.7,0-5.2,0.9-7.3,2.4L22,22.5c-0.4-0.5-0.6-1.1-0.5-1.7c0.2-1.1-0.1-2.4-1-3.3
				c-1.4-1.5-3.7-1.6-5.2-0.4c-1.7,1.4-1.9,3.9-0.5,5.6c0.8,0.9,1.9,1.3,3,1.3c0.6,0,1.1,0.2,1.5,0.7l2,2c-1.6,2.1-2.5,4.7-2.5,7.5
				v5.2c-0.1,0-0.1,0-0.2,0l-6.9-0.1c-0.9,0-1.7-0.5-2.1-1.2c-0.1-0.2-0.3-0.4-0.4-0.6c-1.9-2.2-5.3-2.3-7.4-0.3
				c-1.8,1.8-2,4.8-0.4,6.8c1.8,2.3,5.2,2.6,7.4,0.7c0.3-0.2,0.5-0.5,0.7-0.8c0.5-0.7,1.3-1.1,2.2-1.1l6.9,0.1c0.1,0,0.2,0,0.3,0
				v12.4c0,5.5,4.4,9.9,9.9,9.9h79.4c0,0,4.8,0,7.9,0l5.4,4c0.3,0.3,0.5,0.7,0.4,1.1c-0.2,0.6-0.3,1.3-0.3,1.9
				c0.1,3.1,2.4,5.7,5.5,6c2,0.2,3.8-0.5,5.1-1.7c0.7-0.6,1.3-1.4,1.5-2.4c0-0.1,0-0.1,0-0.2C133.8,73.3,133.9,72.4,133.7,71.5z
				 M57,60.3H31.2c-3.9,0-7-3.1-7-7V47c0-3.9,3.1-7,7-7h14.9v-3.9c0-1.1-0.9-1.9-1.9-1.9H32.5l0-6.6h17.7c3.8,0,6.9,3.1,6.9,6.9
				L57,60.3L57,60.3z M94.8,42.6c0,3.9-3.1,7-7,7H72.9v10.9H62V31.5c0-2,1.7-3.7,3.7-3.7h22.1c3.9,0,7,3.1,7,7
				C94.8,34.8,94.8,42.6,94.8,42.6z M107.5,37.3l1.2,1.1c1.2,1.1,1.9,2.7,1.9,4.4v17.8H99.7V42.9c0-1.7,0.7-3.3,1.9-4.4l1.2-1.1
				c0.5-0.5,0.4-1.3-0.2-1.6c-1.9-1-3.1-3-2.9-5.4c0.3-2.7,2.5-4.8,5.2-4.9c3.1-0.1,5.7,2.4,5.7,5.5c0,2.1-1.2,3.9-2.9,4.8
				C107.1,36,107,36.9,107.5,37.3z"/>
			<path class="st0" d="M81.6,34.4h-7.2c-0.8,0-1.4,0.6-1.4,1.4v6h8.6c1.3,0,2.3-1,2.3-2.3v-2.8C83.9,35.4,82.8,34.4,81.6,34.4z"/>
			<path class="st0" d="M44.7,46.6h-7.2c-1.3,0-2.3,1-2.3,2.3v2.4c0,1.3,1,2.3,2.3,2.3H46V48C46,47.3,45.4,46.6,44.7,46.6z"/>
		</g>
	</g>
	<g>
		<path class="st1" d="M150.9,43.5l-0.3-0.1c-3.2-0.9-6-1.6-6-4.3c0-2.7,2.4-4.5,6-4.5c2.8,0,5.2,1.1,6.6,3l0.2,0.3l1.5-1.4
			l-0.2-0.2c-1.3-1.6-3.7-3.6-8.1-3.6c-4.8,0-8.1,2.6-8.1,6.4c0,4.4,4.2,5.4,7.9,6.4l0.2,0c3.4,0.9,6.6,1.8,6.6,4.9c0,3-2.6,5-6.5,5
			c-2.9,0-5.4-1.2-7-3.3l-0.2-0.3l-1.6,1.5l0.2,0.2c2.3,2.6,4.9,3.7,8.6,3.7c6.3,0,8.5-3.7,8.5-6.9
			C159.3,45.6,154.9,44.5,150.9,43.5z"/>
		<path class="st1" d="M181,51.5c-1.7,2.3-4.9,4-7.8,4c-3.9,0-5.6-1.7-5.6-5.8V33.4h-2v16.3c0,5.2,2.4,7.7,7.4,7.7
			c3.2,0,6.2-1.8,8-3.6v3.1h2V33.4h-2V51.5z"/>
		<path class="st1" d="M200.5,32.8c-3,0-6,1.5-7.9,3.8v-3.2h-2v32.2h2v-12c2,2.5,4.9,3.9,7.9,3.9c6.3,0,10.5-5,10.5-12.3
			C211,37.7,206.8,32.8,200.5,32.8z M208.9,45.1c0,6.3-3.3,10.4-8.4,10.4c-3.5,0-6.6-2.2-7.9-4.4V39c1.3-2.1,4.3-4.3,7.9-4.3
			C205.6,34.7,208.9,38.8,208.9,45.1z"/>
		<path class="st1" d="M227.2,32.8c-6.2,0-11,5.4-11,12.3c0,7.3,4.7,12.3,11.5,12.3c3.6,0,6.4-1.2,9-3.9l0.2-0.2l-1.3-1.3l-0.2,0.2
			c-2.1,2.3-4.6,3.4-7.7,3.4c-5.2,0-9-4-9.3-9.7h19.7v-0.8C238.1,39,234.7,32.8,227.2,32.8z M236,44h-17.6c0.3-6,4.7-9.3,8.8-9.3
			C232.7,34.7,235.8,39.4,236,44z"/>
		<path class="st1" d="M246.4,37v-3.6h-2v23.4h2V39.5c1-1.9,4.1-4.3,6.4-4.3c0.4,0,0.7,0,1.1,0l0.3,0v-2.3H254
			C251.1,32.9,248.6,34.2,246.4,37z"/>
		<path class="st1" d="M277.9,43.5l-0.3-0.1c-3.2-0.9-6-1.6-6-4.3c0-2.7,2.4-4.5,6-4.5c2.8,0,5.2,1.1,6.6,3l0.2,0.3l1.5-1.4
			l-0.2-0.2c-1.3-1.6-3.7-3.6-8.1-3.6c-4.8,0-8.1,2.6-8.1,6.4c0,4.4,4.2,5.4,7.9,6.4l0.2,0c3.4,0.9,6.6,1.8,6.6,4.9c0,3-2.6,5-6.5,5
			c-2.9,0-5.4-1.2-7-3.3l-0.2-0.3l-1.6,1.5l0.2,0.2c2.3,2.6,4.9,3.7,8.6,3.7c6.3,0,8.5-3.7,8.5-6.9
			C286.3,45.6,281.8,44.5,277.9,43.5z"/>
		<path class="st1" d="M299.5,54.4c-0.5,0.5-1.4,1.1-2.5,1.1c-1.9,0-2.2-1.9-2.2-3V35.2h4.6v-1.9h-4.6v-6.2h-2v6.2h-3.8v1.9h3.8
			v17.2c0,3.1,1.5,4.9,4.2,4.9c1.8,0,2.8-0.6,3.8-1.5l0.2-0.2l-1.2-1.6L299.5,54.4z"/>
		<path class="st1" d="M314.4,32.8c-6.3,0-11,5.2-11,12.3c0,7.1,4.6,12.3,11,12.3s10.9-5.2,10.9-12.3
			C325.3,37.8,320.8,32.8,314.4,32.8z M323.2,45.1c0,5-2.8,10.4-8.8,10.4c-5.8,0-8.8-5.3-8.8-10.4c0-5.2,3-10.4,8.8-10.4
			C318.6,34.7,323.2,37.9,323.2,45.1z"/>
		<path class="st1" d="M333.7,37v-3.6h-2v23.4h2V39.5c1-1.9,4.1-4.3,6.4-4.3c0.4,0,0.7,0,1.1,0l0.3,0v-2.3h-0.3
			C338.4,32.9,335.9,34.2,333.7,37z"/>
		<path class="st1" d="M366.8,45.1c0-6.1-3.4-12.3-10.9-12.3c-2.8,0-5.4,1.1-7.4,3.1c-2.3,2.3-3.6,5.6-3.6,9.2
			c0,7.3,4.7,12.3,11.5,12.3c3.6,0,6.4-1.2,9-3.9l0.2-0.2l-1.3-1.3l-0.2,0.2c-2.1,2.3-4.6,3.4-7.7,3.4c-5.2,0-9-4-9.3-9.7h19.7V45.1
			z M364.6,44H347c0.3-4.6,3.4-9.3,8.8-9.3C361.4,34.7,364.5,39.4,364.6,44z"/>
	</g>
</g>
</svg>
