<?xml version="1.0" encoding="utf-8"?>
<!-- Generator: Adobe Illustrator 24.0.0, SVG Export Plug-In . SVG Version: 6.00 Build 0)  -->
<svg version="1.1" id="Layer_1" xmlns="http://www.w3.org/2000/svg" xmlns:xlink="http://www.w3.org/1999/xlink" x="0px" y="0px"
	 viewBox="0 0 379 91" style="enable-background:new 0 0 379 91;" xml:space="preserve">
<style type="text/css">
	.st0{fill:#353A3F;}
	.st1{fill:#FF6E4D;}
	.st2{fill:#FFFFFF;}
</style>
<path class="st0" d="M366.52,91H0V12.48C0,5.59,5.59,0,12.48,0H379v78.52C379,85.41,373.41,91,366.52,91z"/>
<g>
	<g>
		<g>
			<path class="st1" d="M138.95,74.06c-0.37-2.49-2.4-4.51-4.88-4.88c-1.29-0.18-2.58,0.09-3.59,0.64
				c-0.37,0.18-0.74,0.18-1.01-0.09l-4.7-3.5l0.09-5.44l2.12,0.28c0.37,0.09,0.74,0.28,0.92,0.64c0.46,0.92,1.38,1.66,2.58,1.75
				c1.75,0.18,3.32-0.92,3.69-2.67c0.37-1.84-0.83-3.69-2.76-3.96c-1.11-0.18-2.12,0.18-2.86,0.83c-0.28,0.28-0.64,0.37-1.01,0.28
				l-2.58-0.37c-0.09,0-0.18,0-0.18,0V32.69c0-2.4-1.66-4.33-3.59-4.33H48.29l0,0l-2.4-10.32c-0.09-0.55,0-1.11,0.37-1.47
				c0.46-0.46,1.01-1.2,1.2-2.03c0.46-1.38,0-3.04-0.83-4.05c-1.47-1.84-4.15-2.3-6.17-1.01c-2.3,1.47-2.86,4.51-1.29,6.63
				c0.55,0.83,1.38,1.38,2.3,1.75c0.55,0.18,0.92,0.64,1.11,1.2l2.3,9.49h-0.55c-2.49,0-4.79,0.83-6.73,2.21l-1.57-1.84
				c-0.37-0.46-0.55-1.01-0.46-1.57c0.18-1.01-0.09-2.21-0.92-3.04c-1.29-1.38-3.41-1.47-4.79-0.37c-1.57,1.29-1.75,3.59-0.46,5.16
				c0.74,0.83,1.75,1.2,2.76,1.2c0.55,0,1.01,0.18,1.38,0.64l1.84,1.84c-1.47,1.93-2.3,4.33-2.3,6.91v4.79c-0.09,0-0.09,0-0.18,0
				l-6.36-0.09c-0.83,0-1.57-0.46-1.93-1.11c-0.09-0.18-0.28-0.37-0.37-0.55c-1.75-2.03-4.88-2.12-6.82-0.28
				c-1.66,1.66-1.84,4.42-0.37,6.27c1.66,2.12,4.79,2.4,6.82,0.64c0.28-0.18,0.46-0.46,0.64-0.74c0.46-0.64,1.2-1.01,2.03-1.01
				l6.36,0.09c0.09,0,0.18,0,0.28,0v11.43c0,5.07,4.05,9.12,9.12,9.12h73.16c0,0,4.42,0,7.28,0l4.98,3.69
				c0.28,0.28,0.46,0.64,0.37,1.01c-0.18,0.55-0.28,1.2-0.28,1.75c0.09,2.86,2.21,5.25,5.07,5.53c1.84,0.18,3.5-0.46,4.7-1.57
				c0.64-0.55,1.2-1.29,1.38-2.21c0-0.09,0-0.09,0-0.18C139.04,75.72,139.14,74.89,138.95,74.06z M68.28,63.74H44.51
				c-3.59,0-6.45-2.86-6.45-6.45v-5.8c0-3.59,2.86-6.45,6.45-6.45h13.73v-3.59c0-1.01-0.83-1.75-1.75-1.75H45.71v-6.08h16.31
				c3.5,0,6.36,2.86,6.36,6.36L68.28,63.74L68.28,63.74z M103.11,47.43c0,3.59-2.86,6.45-6.45,6.45H82.93v10.04H72.89V37.2
				c0-1.84,1.57-3.41,3.41-3.41h20.36c3.59,0,6.45,2.86,6.45,6.45C103.11,40.24,103.11,47.43,103.11,47.43z M114.81,42.55l1.11,1.01
				c1.11,1.01,1.75,2.49,1.75,4.05v16.4h-10.04V47.71c0-1.57,0.64-3.04,1.75-4.05l1.11-1.01c0.46-0.46,0.37-1.2-0.18-1.47
				c-1.75-0.92-2.86-2.76-2.67-4.98c0.28-2.49,2.3-4.42,4.79-4.51c2.86-0.09,5.25,2.21,5.25,5.07c0,1.93-1.11,3.59-2.67,4.42
				C114.44,41.35,114.35,42.18,114.81,42.55z"/>
			<path class="st1" d="M90.95,39.88h-6.63c-0.74,0-1.29,0.55-1.29,1.29v5.53h7.92c1.2,0,2.12-0.92,2.12-2.12v-2.58
				C93.07,40.8,92.05,39.88,90.95,39.88z"/>
			<path class="st1" d="M56.95,51.12h-6.63c-1.2,0-2.12,0.92-2.12,2.12v2.21c0,1.2,0.92,2.12,2.12,2.12h7.83v-5.16
				C58.15,51.76,57.59,51.12,56.95,51.12z"/>
		</g>
	</g>
	<g>
		<path class="st2" d="M154.8,48.26l-0.28-0.09c-2.95-0.83-5.53-1.47-5.53-3.96c0-2.49,2.21-4.15,5.53-4.15
			c2.58,0,4.79,1.01,6.08,2.76l0.18,0.28l1.38-1.29l-0.18-0.18c-1.2-1.47-3.41-3.32-7.46-3.32c-4.42,0-7.46,2.4-7.46,5.9
			c0,4.05,3.87,4.98,7.28,5.9h0.18c3.13,0.83,6.08,1.66,6.08,4.51c0,2.76-2.4,4.61-5.99,4.61c-2.67,0-4.98-1.11-6.45-3.04
			l-0.18-0.28l-1.47,1.38l0.18,0.18c2.12,2.4,4.51,3.41,7.92,3.41c5.8,0,7.83-3.41,7.83-6.36C162.54,50.19,158.48,49.18,154.8,48.26
			z"/>
		<path class="st2" d="M182.53,55.63c-1.57,2.12-4.51,3.69-7.19,3.69c-3.59,0-5.16-1.57-5.16-5.34V38.95h-1.84v15.02
			c0,4.79,2.21,7.09,6.82,7.09c2.95,0,5.71-1.66,7.37-3.32v2.86h1.84V38.95h-1.84L182.53,55.63L182.53,55.63z"/>
		<path class="st2" d="M200.5,38.4c-2.76,0-5.53,1.38-7.28,3.5v-2.95h-1.84v29.67h1.84V57.57c1.84,2.3,4.51,3.59,7.28,3.59
			c5.8,0,9.67-4.61,9.67-11.33C210.17,42.92,206.3,38.4,200.5,38.4z M208.24,49.73c0,5.8-3.04,9.58-7.74,9.58
			c-3.22,0-6.08-2.03-7.28-4.05V44.11c1.2-1.93,3.96-3.96,7.28-3.96C205.2,40.15,208.24,43.93,208.24,49.73z"/>
		<path class="st2" d="M225.1,38.4c-5.71,0-10.14,4.98-10.14,11.33c0,6.73,4.33,11.33,10.6,11.33c3.32,0,5.9-1.11,8.29-3.59
			l0.18-0.18l-1.2-1.2l-0.18,0.18c-1.93,2.12-4.24,3.13-7.09,3.13c-4.79,0-8.29-3.69-8.57-8.94h18.15v-0.74
			C235.14,44.11,232.01,38.4,225.1,38.4z M233.21,48.72h-16.22c0.28-5.53,4.33-8.57,8.11-8.57
			C230.17,40.15,233.02,44.48,233.21,48.72z"/>
		<path class="st2" d="M242.79,42.27v-3.32h-1.84v21.56h1.84V44.57c0.92-1.75,3.78-3.96,5.9-3.96c0.37,0,0.64,0,1.01,0h0.28v-2.12
			h-0.18C247.12,38.49,244.82,39.69,242.79,42.27z"/>
		<path class="st2" d="M271.81,48.26l-0.28-0.09c-2.95-0.83-5.53-1.47-5.53-3.96c0-2.49,2.21-4.15,5.53-4.15
			c2.58,0,4.79,1.01,6.08,2.76l0.18,0.28l1.38-1.29L279,41.63c-1.2-1.47-3.41-3.32-7.46-3.32c-4.42,0-7.46,2.4-7.46,5.9
			c0,4.05,3.87,4.98,7.28,5.9h0.18c3.13,0.83,6.08,1.66,6.08,4.51c0,2.76-2.4,4.61-5.99,4.61c-2.67,0-4.98-1.11-6.45-3.04L265,55.91
			l-1.47,1.38l0.18,0.18c2.12,2.4,4.51,3.41,7.92,3.41c5.8,0,7.83-3.41,7.83-6.36C279.55,50.19,275.41,49.18,271.81,48.26z"/>
		<path class="st2" d="M291.72,58.3c-0.46,0.46-1.29,1.01-2.3,1.01c-1.75,0-2.03-1.75-2.03-2.76V40.61h4.24v-1.75h-4.24v-5.71h-1.84
			v5.71h-3.5v1.75h3.5v15.85c0,2.86,1.38,4.51,3.87,4.51c1.66,0,2.58-0.55,3.5-1.38l0.18-0.18l-1.11-1.47L291.72,58.3z"/>
		<path class="st2" d="M305.44,38.4c-5.8,0-10.14,4.79-10.14,11.33s4.24,11.33,10.14,11.33c5.9,0,10.04-4.79,10.04-11.33
			C315.49,43.01,311.34,38.4,305.44,38.4z M313.55,49.73c0,4.61-2.58,9.58-8.11,9.58c-5.34,0-8.11-4.88-8.11-9.58
			c0-4.79,2.76-9.58,8.11-9.58C309.31,40.15,313.55,43.1,313.55,49.73z"/>
		<path class="st2" d="M323.23,42.27v-3.32h-1.84v21.56h1.84V44.57c0.92-1.75,3.78-3.96,5.9-3.96c0.37,0,0.64,0,1.01,0h0.28v-2.12
			h-0.28C327.56,38.49,325.25,39.69,323.23,42.27z"/>
		<path class="st2" d="M353.72,49.73c0-5.62-3.13-11.33-10.04-11.33c-2.58,0-4.98,1.01-6.82,2.86c-2.12,2.12-3.32,5.16-3.32,8.48
			c0,6.73,4.33,11.33,10.6,11.33c3.32,0,5.9-1.11,8.29-3.59l0.18-0.18l-1.2-1.2l-0.18,0.18c-1.93,2.12-4.24,3.13-7.09,3.13
			c-4.79,0-8.29-3.69-8.57-8.94h18.15L353.72,49.73L353.72,49.73z M351.7,48.72h-16.22c0.28-4.24,3.13-8.57,8.11-8.57
			C348.75,40.15,351.61,44.48,351.7,48.72z"/>
	</g>
</g>
</svg>
