<?xml version="1.0" encoding="utf-8"?>
<!-- Generator: Adobe Illustrator 24.0.0, SVG Export Plug-In . SVG Version: 6.00 Build 0)  -->
<svg version="1.1" id="Layer_1" xmlns="http://www.w3.org/2000/svg" xmlns:xlink="http://www.w3.org/1999/xlink" x="0px" y="0px"
	 viewBox="0 0 317.37 328.68" style="enable-background:new 0 0 317.37 328.68;" xml:space="preserve">
<style type="text/css">
	.st0{fill:#FFFFFF;}
</style>
<g id="artwork_2">
</g>
<g id="artwork">
</g>
<g id="dieline">
</g>
<g id="blister_placement">
	<path class="st0" d="M314.3,120.05c-6.25-9.91-19.43-12.45-28.87-5.78c-3.61,2.55-6.13,6.07-7.46,9.96
		c-0.8,2.34-2.78,4.09-5.19,4.67l-29.54,7.17c-4.14-11.54-10.18-22.17-17.74-31.52l3.74-3.82c1.81-1.6,4.25-2.26,6.63-1.87
		c4.55,0.75,9.4-0.52,13.08-3.93c5.86-5.44,6.57-14.74,1.59-21c-7.03-8.84-14.23-9.14-22.36-2.04c-3.56,3.11-5.36,7.5-5.3,11.88
		c0.03,2.23-0.99,4.34-2.66,5.82l-4.4,4.44c-14.74-14.02-33.42-23.94-54.21-27.94l0.2-20.13c0.1-3.45,1.87-6.63,4.73-8.56
		c0.85-0.57,1.65-1.16,2.24-1.68c8.76-7.65,9.4-21.14,1.19-29.59c-7.18-7.4-19.08-8.2-27.19-1.83c-9.27,7.28-10.44,20.73-2.78,29.48
		c0.97,1.1,2.02,2.08,3.16,2.92c2.76,2.05,4.45,5.24,4.35,8.69l-0.19,18.92c-2.03-0.12-4.08-0.18-6.15-0.19
		c-60-0.11-108.73,48.43-108.85,108.44c-0.05,26.39,9.32,50.61,24.94,69.46L57.25,246c0,0.05,0.01,0.1,0.01,0.16l-0.66-0.29
		c0.3,0.34,0.53,0.71,0.7,1.1c0.03,0.93,0.11,1.86,0.24,2.76c-0.13,0.52-0.35,1.02-0.69,1.48l-20.21,27.2
		c-1.05,1.42-2.88,2.04-4.57,1.54c-2.44-0.73-5.04-1.11-7.75-1.05c-12.27,0.26-22.67,9.68-24.14,21.87
		c-0.95,7.88,1.85,15.25,6.93,20.44c2.43,2.91,5.73,5.14,9.68,6.2c0.26,0.07,0.52,0.11,0.77,0.17c3.3,1.01,6.89,1.39,10.68,0.87
		c10.97-1.48,19.79-10.25,21.3-21.22c0.78-5.64-0.38-11.04-2.92-15.58c-0.81-1.44-0.68-3.23,0.31-4.56l23.45-31.73
		c6.22,5.32,13.05,9.96,20.38,13.78l-2.11,12.49c-0.26,1.68-1.34,3.09-2.84,3.87c-4.07,2.12-7.09,6.11-7.73,11.05
		c-0.96,7.45,4.11,14.58,11.46,16.11c8.19,1.7,16.05-3.78,17.36-11.95c0.74-4.6-0.77-9.05-3.72-12.21c-1.08-1.16-1.56-2.74-1.33-4.3
		l1.45-9.48c11.67,4.31,24.28,6.68,37.44,6.7c60,0.11,108.73-48.43,108.85-108.44c0.01-7.84-0.81-15.48-2.37-22.84l29.43-6.71
		c2.3-0.52,4.71,0.08,6.47,1.63c2.13,1.87,5.38,4.29,8.98,5.41c6.05,1.88,13.08-0.17,17.58-3.71
		C317.75,140.41,319.76,128.72,314.3,120.05z M149.91,145.51l4.5,4.18c4.64,4.31,7.28,10.36,7.28,16.69v67.09h-41.26v-67.09
		c0-6.33,2.64-12.38,7.28-16.69l4.5-4.18c1.93-1.79,1.53-4.96-0.79-6.19c-7.09-3.76-11.73-11.53-10.89-20.29
		c0.97-10.06,9.43-18.07,19.52-18.55c11.85-0.57,21.64,8.88,21.64,20.61c0,7.94-4.48,14.83-11.06,18.27
		C148.33,140.55,148.01,143.74,149.91,145.51z"/>
</g>
</svg>
