<?xml version="1.0" encoding="utf-8"?>
<!-- Generator: Adobe Illustrator 24.0.0, SVG Export Plug-In . SVG Version: 6.00 Build 0)  -->
<svg version="1.1" id="Layer_1" xmlns="http://www.w3.org/2000/svg" xmlns:xlink="http://www.w3.org/1999/xlink" x="0px" y="0px"
	 viewBox="0 0 333.82 361.79" style="enable-background:new 0 0 333.82 361.79;" xml:space="preserve">
<style type="text/css">
	.st0{fill:#007EFF;}
</style>
<g id="artwork_2">
</g>
<g id="artwork">
</g>
<g id="dieline">
</g>
<g id="blister_placement">
	<g>
		<path class="st0" d="M194.54,142.43h-25.23c-2.65,0-4.8,2.15-4.8,4.8v21.01h30.03c4.42,0,8-3.58,8-8v-9.81
			C202.54,146.01,198.96,142.43,194.54,142.43z"/>
		<path class="st0" d="M326.12,63.35c-9.3-7.43-22.81-5.47-29.65,4.09c-2.62,3.66-3.86,7.88-3.84,12.05
			c0.01,2.52-1.3,4.85-3.42,6.22l-25.96,16.74c-7.83-9.69-17.17-17.89-27.55-24.34l2.32-4.91c1.2-2.14,3.32-3.59,5.74-4.01
			c4.62-0.8,8.85-3.64,11.24-8.14c3.81-7.18,1.39-16.34-5.48-20.69c-9.7-6.14-16.72-4.02-22.15,5.5c-2.38,4.18-2.64,8.99-1.12,13.18
			c0.77,2.13,0.49,4.5-0.61,6.48l-2.74,5.73c-18.83-8.54-40.07-11.83-61.37-8.73L155,43.13c-1.05-3.35-0.42-6.99,1.69-9.8
			c0.62-0.83,1.2-1.67,1.59-2.36c5.85-10.27,1.97-23.43-8.73-28.8c-9.36-4.71-21.06-1.5-26.71,7.32
			c-6.47,10.08-3.11,23.38,7.16,29.24c1.3,0.74,2.64,1.32,4,1.75c3.34,1.05,6.02,3.55,7.07,6.89l6.14,18.23
			c-1.99,0.57-3.98,1.19-5.96,1.87C83.61,87.39,53.03,150.26,72.94,207.9c8.76,25.36,25.84,45.47,47.12,58.36l1.32,3.82
			c0.02,0.05,0.04,0.1,0.06,0.15l-0.73-0.06c0.4,0.22,0.74,0.51,1.04,0.83c0.34,0.89,0.73,1.74,1.15,2.57c0.05,0.54,0,1.1-0.17,1.65
			l-10.32,32.86c-0.54,1.71-2.08,2.92-3.87,3c-2.58,0.11-5.2,0.62-7.79,1.58c-11.69,4.34-18.53,16.86-15.87,29.05
			c1.72,7.88,6.87,14.03,13.48,17.31c3.3,1.99,7.22,3.02,11.36,2.72c0.27-0.02,0.53-0.07,0.8-0.1c3.5-0.13,7.08-0.97,10.55-2.72
			c10.04-5.09,15.58-16.45,13.37-27.48c-1.14-5.68-4.05-10.47-8.01-13.98c-1.26-1.12-1.73-2.87-1.23-4.48l11.92-38.29
			c7.75,3.03,15.86,5.2,24.16,6.43l2.15,12.69c0.31,1.7-0.25,3.41-1.44,4.67c-3.2,3.39-4.77,8.24-3.73,13.19
			c1.56,7.47,8.81,12.62,16.38,11.64c8.43-1.1,14.15-8.99,12.68-17.27c-0.83-4.66-3.76-8.43-7.64-10.49
			c-1.42-0.75-2.42-2.11-2.71-3.69l-1.77-9.59c12.64,0.24,25.54-1.69,38.18-6.06c57.64-19.92,88.22-82.79,68.31-140.43
			c-2.6-7.53-5.94-14.59-9.9-21.14l26.01-16.27c2.03-1.27,4.54-1.5,6.76-0.59c2.67,1.09,6.6,2.32,10.43,2.2
			c6.43-0.22,12.5-4.53,15.64-9.43C336.24,81.75,334.27,69.86,326.12,63.35z M240.58,171.06c0,13.45-10.9,24.35-24.35,24.35H164.5
			v38.04h-38.04v-101.2c0-7.13,5.78-12.91,12.91-12.91h76.86c13.45,0,24.35,10.9,24.35,24.35V171.06z"/>
	</g>
</g>
</svg>
