<?xml version="1.0" encoding="utf-8"?>
<!-- Generator: Adobe Illustrator 24.0.0, SVG Export Plug-In . SVG Version: 6.00 Build 0)  -->
<svg version="1.1" id="Layer_1" xmlns="http://www.w3.org/2000/svg" xmlns:xlink="http://www.w3.org/1999/xlink" x="0px" y="0px"
	 viewBox="0 0 366.29 78.11" style="enable-background:new 0 0 366.29 78.11;" xml:space="preserve">
<style type="text/css">
	.st0{fill:#FF6E4D;}
	.st1{fill:#FFFFFF;}
</style>
<g>
	<g>
		<g>
			<path class="st0" d="M133.56,71.04c-0.38-2.74-2.57-4.94-5.31-5.31c-1.41-0.19-2.76,0.1-3.89,0.74c-0.36,0.2-0.81,0.17-1.14-0.07
				l-5.12-3.79l0.08-5.89l2.34,0.35c0.42,0.06,0.77,0.33,0.97,0.71c0.53,1.02,1.53,1.77,2.76,1.93c1.86,0.24,3.64-1.03,4.02-2.87
				c0.42-2.05-0.95-4.01-2.99-4.33c-1.15-0.18-2.26,0.2-3.05,0.93c-0.29,0.27-0.68,0.39-1.07,0.33l-2.76-0.42
				c-0.07-0.01-0.15-0.03-0.22-0.05V26.14c0-2.62-1.75-4.74-3.9-4.74H35.09c0,0,0-0.01,0-0.01l-2.58-11.22
				c-0.13-0.57,0.02-1.18,0.4-1.62c0.47-0.53,1.07-1.35,1.35-2.25c0.47-1.51-0.05-3.27-0.94-4.39c-1.59-2.01-4.51-2.51-6.67-1.14
				c-2.47,1.57-3.1,4.86-1.43,7.22c0.64,0.9,1.52,1.53,2.49,1.86c0.59,0.2,1.02,0.69,1.17,1.29l2.51,10.26h-0.51
				c-2.71,0-5.22,0.88-7.26,2.36l-1.76-1.72c-0.4-0.45-0.57-1.06-0.47-1.66c0.19-1.14-0.13-2.35-0.99-3.26
				c-1.36-1.46-3.68-1.63-5.25-0.39c-1.74,1.39-1.95,3.93-0.5,5.59c0.78,0.89,1.88,1.33,2.97,1.32c0.56-0.01,1.08,0.25,1.46,0.66
				l1.99,1.96c-1.59,2.08-2.54,4.68-2.54,7.5v5.22c-0.06,0.01-0.12,0.01-0.18,0.01l-6.88-0.08c-0.86-0.02-1.66-0.46-2.14-1.18
				c-0.14-0.21-0.29-0.41-0.42-0.56C7,34.98,3.63,34.83,1.52,36.88c-1.84,1.8-2.04,4.77-0.44,6.79c1.82,2.31,5.18,2.6,7.37,0.68
				c0.28-0.24,0.52-0.51,0.73-0.79c0.51-0.69,1.31-1.11,2.17-1.09l6.9,0.08c0.1,0,0.19,0.02,0.28,0.04v12.44
				c0,5.46,4.43,9.89,9.89,9.89h79.35c0.01,0,4.84,0.01,7.88,0.04l5.41,4c0.35,0.26,0.51,0.72,0.39,1.14
				c-0.18,0.61-0.27,1.26-0.26,1.94c0.07,3.07,2.43,5.66,5.47,6.02c1.97,0.23,3.81-0.47,5.1-1.74c0.73-0.61,1.28-1.44,1.54-2.42
				c0.02-0.06,0.03-0.13,0.04-0.19C133.6,72.89,133.69,71.99,133.56,71.04z M56.82,59.87h-25.8c-3.87,0-7-3.13-7-7v-6.31
				c0-3.87,3.13-7,7-7h14.87v-3.93c0-1.07-0.86-1.93-1.93-1.93H32.3l-0.03-6.64h17.67c3.8,0,6.89,3.08,6.89,6.89V59.87z
				 M94.63,42.19c0,3.87-3.13,7-7,7H72.76v10.93H61.83V31.03c0-2.05,1.66-3.71,3.71-3.71h22.09c3.87,0,7,3.13,7,7V42.19z
				 M107.32,36.89l1.19,1.11c1.23,1.14,1.93,2.74,1.93,4.42V60.2H99.5V42.42c0-1.68,0.7-3.28,1.93-4.42l1.19-1.11
				c0.51-0.47,0.41-1.31-0.21-1.64c-1.88-1-3.11-3.05-2.88-5.38c0.26-2.67,2.5-4.79,5.17-4.92c3.14-0.15,5.74,2.35,5.74,5.46
				c0,2.1-1.19,3.93-2.93,4.84C106.9,35.57,106.81,36.42,107.32,36.89z"/>
			<path class="st0" d="M81.39,33.96h-7.25c-0.76,0-1.38,0.62-1.38,1.38v6.04h8.63c1.27,0,2.3-1.03,2.3-2.3v-2.82
				C83.69,34.99,82.66,33.96,81.39,33.96z"/>
			<path class="st0" d="M44.5,46.2h-7.25c-1.27,0-2.3,1.03-2.3,2.3v2.43c0,1.27,1.03,2.3,2.3,2.3h8.63v-5.65
				C45.88,46.82,45.26,46.2,44.5,46.2z"/>
		</g>
	</g>
	<g>
		<path class="st1" d="M143.39,51.96c1.42,1.89,3.88,3.41,7.24,3.41c4.21,0,6.77-2.27,6.77-5.3c0-3.36-3.41-4.26-6.91-5.21
			c-3.79-0.99-7.76-1.99-7.76-6.15c0-3.36,2.84-6.06,7.76-6.06c3.93,0,6.39,1.56,7.86,3.45l-1.04,0.95
			c-1.33-1.89-3.74-3.12-6.81-3.12c-3.98,0-6.34,2.08-6.34,4.78c0,2.98,3.17,3.74,6.53,4.64c3.93,0.99,8.14,2.08,8.14,6.72
			c0,3.55-2.65,6.58-8.19,6.58c-3.6,0-6.1-1.04-8.38-3.64L143.39,51.96z"/>
		<path class="st1" d="M181.15,52.57c-1.94,2.18-5.11,4.07-8.28,4.07c-4.54,0-7.15-1.99-7.15-7.38V33.22h1.42v16.04
			c0,4.78,2.37,6.1,5.92,6.1c3.12,0,6.48-1.89,8.09-4.16V33.22h1.42v22.86h-1.42V52.57z"/>
		<path class="st1" d="M190.71,64.78V33.22h1.42v3.83c1.56-2.37,4.64-4.4,8.23-4.4c6.15,0,10.22,4.73,10.22,11.97
			c0,7.19-4.07,12.02-10.22,12.02c-3.41,0-6.39-1.8-8.23-4.5v12.64H190.71z M200.37,33.93c-3.55,0-6.81,2.13-8.23,4.54v12.26
			c1.42,2.41,4.68,4.64,8.23,4.64c5.58,0,8.66-4.73,8.66-10.74S205.95,33.93,200.37,33.93z"/>
		<path class="st1" d="M227.01,32.65c7,0,10.6,5.63,10.6,11.97v0.47h-19.73c0.14,5.58,3.79,10.27,9.61,10.27
			c3.22,0,5.82-1.18,7.95-3.45l0.85,0.9c-2.32,2.41-4.97,3.83-8.8,3.83c-6.63,0-11.22-5.06-11.22-12.02
			C216.27,38,220.86,32.65,227.01,32.65z M217.88,43.82h18.22c0-4.4-2.89-9.89-9.13-9.89C221.1,33.93,218.02,39.32,217.88,43.82z"/>
		<path class="st1" d="M244.52,33.22h1.42v4.16c2.03-2.7,4.54-4.59,7.86-4.59v1.7c-0.43-0.05-0.71-0.05-1.14-0.05
			c-2.41,0-5.68,2.37-6.72,4.5v17.13h-1.42V33.22z"/>
		<path class="st1" d="M270.36,51.96c1.42,1.89,3.88,3.41,7.24,3.41c4.21,0,6.77-2.27,6.77-5.3c0-3.36-3.41-4.26-6.91-5.21
			c-3.79-0.99-7.76-1.99-7.76-6.15c0-3.36,2.84-6.06,7.76-6.06c3.93,0,6.39,1.56,7.86,3.45l-1.04,0.95
			c-1.33-1.89-3.74-3.12-6.81-3.12c-3.98,0-6.34,2.08-6.34,4.78c0,2.98,3.17,3.74,6.53,4.64c3.93,0.99,8.14,2.08,8.14,6.72
			c0,3.55-2.65,6.58-8.19,6.58c-3.6,0-6.1-1.04-8.38-3.64L270.36,51.96z"/>
		<path class="st1" d="M292.98,52.05V34.5h-3.79v-1.28h3.79v-6.25h1.42v6.25h4.64v1.28h-4.64v17.56c0,1.94,0.76,3.31,2.46,3.31
			c1.14,0,2.13-0.57,2.7-1.23l0.85,1.09c-0.9,0.85-1.85,1.42-3.55,1.42C294.21,56.64,292.98,54.89,292.98,52.05z"/>
		<path class="st1" d="M303.58,44.62c0-6.72,4.21-11.97,10.65-11.97c6.48,0,10.65,5.25,10.65,11.97s-4.16,12.02-10.65,12.02
			C307.8,56.64,303.58,51.34,303.58,44.62z M323.32,44.62c0-5.54-3.22-10.69-9.09-10.69c-5.82,0-9.09,5.16-9.09,10.69
			c0,5.58,3.27,10.74,9.09,10.74C320.1,55.36,323.32,50.21,323.32,44.62z"/>
		<path class="st1" d="M331.79,33.22h1.42v4.16c2.03-2.7,4.54-4.59,7.86-4.59v1.7c-0.43-0.05-0.71-0.05-1.14-0.05
			c-2.41,0-5.68,2.37-6.72,4.5v17.13h-1.42V33.22z"/>
		<path class="st1" d="M355.69,32.65c7,0,10.6,5.63,10.6,11.97v0.47h-19.73c0.14,5.58,3.79,10.27,9.61,10.27
			c3.22,0,5.82-1.18,7.95-3.45l0.85,0.9c-2.32,2.41-4.97,3.83-8.8,3.83c-6.63,0-11.22-5.06-11.22-12.02
			C344.94,38,349.54,32.65,355.69,32.65z M346.55,43.82h18.22c0-4.4-2.89-9.89-9.13-9.89C349.77,33.93,346.7,39.32,346.55,43.82z"/>
	</g>
</g>
</svg>
